<svg width="155" height="28" viewBox="0 0 155 28" fill="none" xmlns="http://www.w3.org/2000/svg">
<path d="M44.3395 10.4531H46.875C46.8253 7.99574 44.7301 6.25568 41.6335 6.25568C38.5795 6.25568 36.2855 7.97443 36.2926 10.5455C36.2926 12.6335 37.777 13.8338 40.1705 14.4517L41.8253 14.8778C43.3949 15.2756 44.4318 15.7656 44.4389 16.8949C44.4318 18.1378 43.2528 18.9688 41.5341 18.9688C39.8864 18.9688 38.608 18.2301 38.5014 16.7031H35.9091C36.0156 19.5938 38.1676 21.2202 41.5554 21.2202C45.0426 21.2202 47.0668 19.4801 47.0739 16.9162C47.0668 14.3949 44.9858 13.2443 42.7983 12.7259L41.4347 12.3849C40.2415 12.1009 38.9489 11.5966 38.9631 10.3821C38.9702 9.28835 39.9503 8.4858 41.598 8.4858C43.1676 8.4858 44.2045 9.21733 44.3395 10.4531ZM54.2567 10.0909H52.1048V7.47727H49.5337V10.0909H47.9854V12.0795H49.5337V18.1449C49.5195 20.1974 51.011 21.206 52.9428 21.1491C53.6744 21.1278 54.1786 20.9858 54.4556 20.8935L54.0224 18.8835C53.8803 18.919 53.5891 18.983 53.2695 18.983C52.6232 18.983 52.1048 18.7557 52.1048 17.7188V12.0795H54.2567V10.0909ZM59.0462 21.2202C60.7578 21.2202 61.7805 20.4176 62.2493 19.5014H62.3345V21H64.8061V13.6989C64.8061 10.8153 62.4553 9.94886 60.3743 9.94886C58.0803 9.94886 56.3189 10.9716 55.7507 12.9602L58.1513 13.3011C58.407 12.5554 59.1314 11.9162 60.3885 11.9162C61.5817 11.9162 62.2351 12.527 62.2351 13.5994V13.642C62.2351 14.3807 61.4609 14.4162 59.5362 14.6222C57.4197 14.8494 55.3956 15.4815 55.3956 17.9389C55.3956 20.0838 56.9652 21.2202 59.0462 21.2202ZM59.7138 19.331C58.6413 19.331 57.8743 18.8409 57.8743 17.8963C57.8743 16.9091 58.7337 16.4972 59.8842 16.3338C60.5589 16.2415 61.9084 16.071 62.2422 15.8011V17.0866C62.2422 18.3011 61.2621 19.331 59.7138 19.331ZM72.4169 10.0909H70.1513V9.23153C70.1513 8.37926 70.5064 7.90341 71.4652 7.90341C71.87 7.90341 72.2109 7.99574 72.424 8.05966L72.9425 6.07102C72.6087 5.95739 71.8771 5.77273 70.9893 5.77273C69.093 5.77273 67.5803 6.85938 67.5803 9.06108V10.0909H65.968V12.0795H67.5803V21H70.1513V12.0795H72.4169V10.0909ZM79.456 10.0909H77.1903V9.23153C77.1903 8.37926 77.5455 7.90341 78.5043 7.90341C78.9091 7.90341 79.25 7.99574 79.4631 8.05966L79.9815 6.07102C79.6477 5.95739 78.9162 5.77273 78.0284 5.77273C76.1321 5.77273 74.6193 6.85938 74.6193 9.06108V10.0909H73.0071V12.0795H74.6193V21H77.1903V12.0795H79.456V10.0909ZM85.544 21H94.5852V18.7912H88.179V6.45455H85.544V21ZM101.017 21.2131C104.213 21.2131 106.244 18.9616 106.244 15.5881C106.244 12.2074 104.213 9.94886 101.017 9.94886C97.821 9.94886 95.7898 12.2074 95.7898 15.5881C95.7898 18.9616 97.821 21.2131 101.017 21.2131ZM101.031 19.1534C99.2628 19.1534 98.3963 17.5767 98.3963 15.581C98.3963 13.5852 99.2628 11.9872 101.031 11.9872C102.771 11.9872 103.638 13.5852 103.638 15.581C103.638 17.5767 102.771 19.1534 101.031 19.1534ZM112.671 25.3182C115.618 25.3182 117.792 23.9688 117.792 21.1776V10.0909H115.256V11.8949H115.114C114.723 11.1065 113.907 9.94886 111.982 9.94886C109.461 9.94886 107.479 11.9233 107.479 15.5099C107.479 19.0682 109.461 20.8438 111.975 20.8438C113.843 20.8438 114.716 19.8423 115.114 19.0398H115.242V21.1065C115.242 22.7116 114.176 23.3722 112.713 23.3722C111.165 23.3722 110.483 22.6406 110.171 22.0014L107.855 22.5625C108.324 24.0895 109.894 25.3182 112.671 25.3182ZM112.692 18.8267C110.995 18.8267 110.1 17.5057 110.1 15.4957C110.1 13.5142 110.98 12.0582 112.692 12.0582C114.347 12.0582 115.256 13.429 115.256 15.4957C115.256 17.5767 114.333 18.8267 112.692 18.8267ZM119.926 21H122.498V10.0909H119.926V21ZM121.219 8.54261C122.036 8.54261 122.703 7.91761 122.703 7.15057C122.703 6.37642 122.036 5.75142 121.219 5.75142C120.395 5.75142 119.728 6.37642 119.728 7.15057C119.728 7.91761 120.395 8.54261 121.219 8.54261ZM127.212 14.608C127.212 13.0312 128.164 12.1222 129.521 12.1222C130.849 12.1222 131.644 12.9957 131.644 14.4517V21H134.215V14.054C134.222 11.4403 132.731 9.94886 130.479 9.94886C128.846 9.94886 127.724 10.7301 127.227 11.9446H127.099V10.0909H124.641V21H127.212V14.608Z" fill="#2F80ED"/>
<path fill-rule="evenodd" clip-rule="evenodd" d="M17.09 5.56C16.39 4.53 15.59 3.57 14.69 2.71C14.34 2.37 13.75 2.69 13.85 3.17C14.04 4.11 14.24 5.35 14.24 6.46C14.24 8.52 12.89 10.19 10.83 10.19C9.29 10.19 8.03 9.26 7.48 7.93C7.38 7.73 7.34 7.61 7.28 7.39C7.17 6.97 6.62 6.84 6.38 7.21C6.2 7.48 6.03 7.75 5.87 8.04C4.68 10.08 4 12.46 4 15C4 19.42 7.58 23 12 23C16.42 23 20 19.42 20 15C20 11.51 18.92 8.27 17.09 5.56ZM11.71 20C9.93 20 8.49 18.6 8.49 16.86C8.49 15.24 9.54 14.1 11.3 13.74C12.77 13.44 14.28 12.81 15.33 11.82C15.61 11.56 16.07 11.68 16.15 12.05C16.38 13.07 16.5 14.13 16.5 15.2C16.51 17.85 14.36 20 11.71 20V20Z" fill="#2F80ED"/>
</svg>
