<svg width="234" height="32" viewBox="0 0 234 32" fill="none" xmlns="http://www.w3.org/2000/svg">
<path d="M53.108 13.2898C52.75 10.7045 50.7614 9.20455 48.1818 9.20455C45.142 9.20455 42.8523 11.4205 42.8523 15.1818C42.8523 18.9375 45.1136 21.1591 48.1818 21.1591C50.9489 21.1591 52.7841 19.3693 53.108 17.1477L50.983 17.1364C50.7159 18.5 49.6023 19.267 48.2102 19.267C46.3239 19.267 44.9716 17.8523 44.9716 15.1818C44.9716 12.5568 46.3125 11.0966 48.2159 11.0966C49.6307 11.0966 50.7386 11.8977 50.983 13.2898H53.108ZM56.6043 15.8864C56.6043 14.625 57.3884 13.8977 58.4906 13.8977C59.5702 13.8977 60.2065 14.5852 60.2065 15.7614V21H62.2634V15.4432C62.2634 13.3352 61.0702 12.1591 59.2577 12.1591C57.9168 12.1591 57.0645 12.767 56.6611 13.7557H56.5588V9.36364H54.5474V21H56.6043V15.8864ZM67.8236 21.1705C69.8577 21.1705 71.2554 20.1761 71.619 18.6591L69.6986 18.4432C69.4202 19.1818 68.7384 19.5682 67.852 19.5682C66.5224 19.5682 65.6418 18.6932 65.6247 17.1989H71.7043V16.5682C71.7043 13.5057 69.8634 12.1591 67.7156 12.1591C65.2156 12.1591 63.5849 13.9943 63.5849 16.6875C63.5849 19.4261 65.1929 21.1705 67.8236 21.1705ZM65.6304 15.8125C65.6929 14.6989 66.5168 13.7614 67.744 13.7614C68.9259 13.7614 69.7213 14.625 69.7327 15.8125H65.6304ZM76.8511 21.1705C79.0443 21.1705 80.442 19.8693 80.5898 18.017H78.6239C78.4477 18.9545 77.7716 19.4943 76.8682 19.4943C75.5841 19.4943 74.7545 18.4205 74.7545 16.6364C74.7545 14.875 75.6011 13.8182 76.8682 13.8182C77.8568 13.8182 78.4648 14.4545 78.6239 15.2955H80.5898C80.4477 13.4034 78.9705 12.1591 76.8398 12.1591C74.283 12.1591 72.6693 14.0057 72.6693 16.6705C72.6693 19.3125 74.2432 21.1705 76.8511 21.1705ZM81.8787 21H83.9355V18.0682L84.6855 17.267L87.356 21H89.8162L86.2366 16.0398L89.6173 12.2727H87.2139L84.0776 15.7784H83.9355V9.36364H81.8787V21ZM94.2477 21H96.3557V16.7386H98.5034L100.787 21H103.14L100.623 16.3864C101.992 15.8352 102.714 14.6648 102.714 13.0852C102.714 10.8636 101.282 9.36364 98.6114 9.36364H94.2477V21ZM96.3557 14.9886V11.125H98.2875C99.8614 11.125 100.566 11.8466 100.566 13.0852C100.566 14.3239 99.8614 14.9886 98.2989 14.9886H96.3557ZM107.902 21.1705C109.936 21.1705 111.334 20.1761 111.697 18.6591L109.777 18.4432C109.498 19.1818 108.816 19.5682 107.93 19.5682C106.601 19.5682 105.72 18.6932 105.703 17.1989H111.782V16.5682C111.782 13.5057 109.941 12.1591 107.794 12.1591C105.294 12.1591 103.663 13.9943 103.663 16.6875C103.663 19.4261 105.271 21.1705 107.902 21.1705ZM105.709 15.8125C105.771 14.6989 106.595 13.7614 107.822 13.7614C109.004 13.7614 109.799 14.625 109.811 15.8125H105.709ZM120.02 14.5795C119.736 13.1023 118.554 12.1591 116.509 12.1591C114.407 12.1591 112.975 13.1932 112.98 14.8068C112.975 16.0795 113.759 16.9205 115.435 17.267L116.924 17.5795C117.725 17.7557 118.1 18.0795 118.1 18.5739C118.1 19.1705 117.452 19.6193 116.475 19.6193C115.532 19.6193 114.918 19.2102 114.742 18.4261L112.736 18.6193C112.992 20.2216 114.338 21.1705 116.48 21.1705C118.662 21.1705 120.202 20.0398 120.208 18.3864C120.202 17.142 119.401 16.3807 117.753 16.0227L116.264 15.7045C115.378 15.5057 115.026 15.1989 115.032 14.6932C115.026 14.1023 115.679 13.6932 116.537 13.6932C117.486 13.6932 117.986 14.2102 118.145 14.7841L120.02 14.5795ZM125.367 21.1705C127.401 21.1705 128.799 20.1761 129.163 18.6591L127.242 18.4432C126.964 19.1818 126.282 19.5682 125.396 19.5682C124.066 19.5682 123.186 18.6932 123.168 17.1989H129.248V16.5682C129.248 13.5057 127.407 12.1591 125.259 12.1591C122.759 12.1591 121.129 13.9943 121.129 16.6875C121.129 19.4261 122.737 21.1705 125.367 21.1705ZM123.174 15.8125C123.237 14.6989 124.061 13.7614 125.288 13.7614C126.47 13.7614 127.265 14.625 127.276 15.8125H123.174ZM130.588 21H132.645V15.8693C132.645 14.7614 133.48 13.9773 134.611 13.9773C134.957 13.9773 135.389 14.0398 135.565 14.0966V12.2045C135.378 12.1705 135.054 12.1477 134.827 12.1477C133.827 12.1477 132.991 12.7159 132.673 13.7273H132.582V12.2727H130.588V21ZM144.593 12.2727H142.405L140.394 18.7557H140.303L138.297 12.2727H136.104L139.212 21H141.485L144.593 12.2727ZM147.878 21.1761C149.247 21.1761 150.065 20.5341 150.44 19.8011H150.508V21H152.486V15.1591C152.486 12.8523 150.605 12.1591 148.94 12.1591C147.105 12.1591 145.696 12.9773 145.241 14.5682L147.162 14.8409C147.366 14.2443 147.946 13.733 148.951 13.733C149.906 13.733 150.429 14.2216 150.429 15.0795V15.1136C150.429 15.7045 149.809 15.733 148.27 15.8977C146.576 16.0795 144.957 16.5852 144.957 18.5511C144.957 20.267 146.213 21.1761 147.878 21.1761ZM148.412 19.6648C147.554 19.6648 146.94 19.2727 146.94 18.517C146.94 17.7273 147.628 17.3977 148.548 17.267C149.088 17.1932 150.167 17.0568 150.434 16.8409V17.8693C150.434 18.8409 149.65 19.6648 148.412 19.6648ZM158.512 12.2727H156.79V10.1818H154.733V12.2727H153.495V13.8636H154.733V18.7159C154.722 20.358 155.915 21.1648 157.461 21.1193C158.046 21.1023 158.449 20.9886 158.671 20.9148L158.324 19.3068C158.211 19.3352 157.978 19.3864 157.722 19.3864C157.205 19.3864 156.79 19.2045 156.79 18.375V13.8636H158.512V12.2727ZM159.832 21H161.889V12.2727H159.832V21ZM160.866 11.0341C161.519 11.0341 162.053 10.5341 162.053 9.92045C162.053 9.30114 161.519 8.80114 160.866 8.80114C160.207 8.80114 159.673 9.30114 159.673 9.92045C159.673 10.5341 160.207 11.0341 160.866 11.0341ZM167.411 21.1705C169.967 21.1705 171.592 19.3693 171.592 16.6705C171.592 13.9659 169.967 12.1591 167.411 12.1591C164.854 12.1591 163.229 13.9659 163.229 16.6705C163.229 19.3693 164.854 21.1705 167.411 21.1705ZM167.422 19.5227C166.007 19.5227 165.314 18.2614 165.314 16.6648C165.314 15.0682 166.007 13.7898 167.422 13.7898C168.814 13.7898 169.507 15.0682 169.507 16.6648C169.507 18.2614 168.814 19.5227 167.422 19.5227ZM174.995 15.8864C174.995 14.625 175.756 13.8977 176.841 13.8977C177.904 13.8977 178.54 14.5966 178.54 15.7614V21H180.597V15.4432C180.603 13.3523 179.41 12.1591 177.609 12.1591C176.302 12.1591 175.404 12.7841 175.006 13.7557H174.904V12.2727H172.938V21H174.995V15.8864ZM192.272 12.5625H194.3C194.26 10.5966 192.584 9.20455 190.107 9.20455C187.664 9.20455 185.828 10.5795 185.834 12.6364C185.834 14.3068 187.022 15.267 188.936 15.7614L190.26 16.1023C191.516 16.4205 192.345 16.8125 192.351 17.7159C192.345 18.7102 191.402 19.375 190.027 19.375C188.709 19.375 187.686 18.7841 187.601 17.5625H185.527C185.613 19.875 187.334 21.1761 190.044 21.1761C192.834 21.1761 194.453 19.7841 194.459 17.733C194.453 15.7159 192.789 14.7955 191.039 14.3807L189.948 14.108C188.993 13.8807 187.959 13.4773 187.97 12.5057C187.976 11.6307 188.76 10.9886 190.078 10.9886C191.334 10.9886 192.164 11.5739 192.272 12.5625ZM200.205 12.2727H198.484V10.1818H196.427V12.2727H195.188V13.8636H196.427V18.7159C196.416 20.358 197.609 21.1648 199.154 21.1193C199.739 21.1023 200.143 20.9886 200.364 20.9148L200.018 19.3068C199.904 19.3352 199.671 19.3864 199.416 19.3864C198.899 19.3864 198.484 19.2045 198.484 18.375V13.8636H200.205V12.2727ZM204.037 21.1761C205.406 21.1761 206.224 20.5341 206.599 19.8011H206.668V21H208.645V15.1591C208.645 12.8523 206.764 12.1591 205.099 12.1591C203.264 12.1591 201.855 12.9773 201.401 14.5682L203.321 14.8409C203.526 14.2443 204.105 13.733 205.111 13.733C206.065 13.733 206.588 14.2216 206.588 15.0795V15.1136C206.588 15.7045 205.969 15.733 204.429 15.8977C202.736 16.0795 201.116 16.5852 201.116 18.5511C201.116 20.267 202.372 21.1761 204.037 21.1761ZM204.571 19.6648C203.713 19.6648 203.099 19.2727 203.099 18.517C203.099 17.7273 203.787 17.3977 204.707 17.267C205.247 17.1932 206.327 17.0568 206.594 16.8409V17.8693C206.594 18.8409 205.81 19.6648 204.571 19.6648ZM214.671 12.2727H212.949V10.1818H210.893V12.2727H209.654V13.8636H210.893V18.7159C210.881 20.358 212.074 21.1648 213.62 21.1193C214.205 21.1023 214.609 20.9886 214.83 20.9148L214.484 19.3068C214.37 19.3352 214.137 19.3864 213.881 19.3864C213.364 19.3864 212.949 19.2045 212.949 18.375V13.8636H214.671V12.2727ZM221.554 17.3295C221.554 18.6591 220.605 19.3182 219.696 19.3182C218.707 19.3182 218.048 18.6193 218.048 17.5114V12.2727H215.991V17.8295C215.991 19.9261 217.184 21.1136 218.9 21.1136C220.207 21.1136 221.128 20.4261 221.525 19.4489H221.616V21H223.611V12.2727H221.554V17.3295ZM232.223 14.5795C231.939 13.1023 230.757 12.1591 228.712 12.1591C226.61 12.1591 225.178 13.1932 225.184 14.8068C225.178 16.0795 225.962 16.9205 227.638 17.267L229.127 17.5795C229.928 17.7557 230.303 18.0795 230.303 18.5739C230.303 19.1705 229.655 19.6193 228.678 19.6193C227.735 19.6193 227.121 19.2102 226.945 18.4261L224.939 18.6193C225.195 20.2216 226.541 21.1705 228.684 21.1705C230.865 21.1705 232.405 20.0398 232.411 18.3864C232.405 17.142 231.604 16.3807 229.956 16.0227L228.468 15.7045C227.581 15.5057 227.229 15.1989 227.235 14.6932C227.229 14.1023 227.882 13.6932 228.74 13.6932C229.689 13.6932 230.189 14.2102 230.348 14.7841L232.223 14.5795Z" fill="#18214D"/>
<path fill-rule="evenodd" clip-rule="evenodd" d="M16 32C24.8366 32 32 24.8366 32 16C32 7.16344 24.8366 0 16 0C7.16344 0 0 7.16344 0 16C0 24.8366 7.16344 32 16 32Z" fill="#EFF2F6"/>
<path fill-rule="evenodd" clip-rule="evenodd" d="M10.1666 16.8333H19.475L16.2416 20.0667C15.9166 20.3917 15.9166 20.925 16.2416 21.25C16.5666 21.575 17.0916 21.575 17.4166 21.25L22.075 16.5917C22.4 16.2667 22.4 15.7417 22.075 15.4167L17.425 10.75C17.1 10.425 16.575 10.425 16.25 10.75C15.925 11.075 15.925 11.6 16.25 11.925L19.475 15.1667H10.1666C9.70831 15.1667 9.33331 15.5417 9.33331 16C9.33331 16.4583 9.70831 16.8333 10.1666 16.8333Z" fill="#18214D"/>
</svg>
