<svg width="212" height="28" viewBox="0 0 212 28" fill="none" xmlns="http://www.w3.org/2000/svg">
<path d="M0.769886 22H5.07528V14.7812H8.21733L12.0753 22H16.8281L12.5028 14.0852C14.8196 13.0909 16.1023 11.0724 16.1023 8.28835C16.1023 4.24148 13.4276 1.63636 8.80398 1.63636H0.769886V22ZM5.07528 11.321V5.15625H7.97869C10.4645 5.15625 11.6676 6.25994 11.6676 8.28835C11.6676 10.3068 10.4645 11.321 7.99858 11.321H5.07528ZM25.1795 22.2983C28.9579 22.2983 31.5033 20.4588 32.0999 17.625L28.1823 17.3665C27.7548 18.5298 26.661 19.1364 25.2491 19.1364C23.1312 19.1364 21.7888 17.7344 21.7888 15.4574V15.4474H32.1894V14.2841C32.1894 9.09375 29.0474 6.52841 25.0104 6.52841C20.5161 6.52841 17.6028 9.72017 17.6028 14.4332C17.6028 19.2756 20.4763 22.2983 25.1795 22.2983ZM21.7888 12.8224C21.8783 11.0824 23.2008 9.69034 25.08 9.69034C26.9195 9.69034 28.1923 11.0028 28.2022 12.8224H21.7888ZM47.061 11.0824C46.6832 8.26847 44.4161 6.52841 40.5582 6.52841C36.6505 6.52841 34.0752 8.33807 34.0852 11.2812C34.0752 13.5682 35.517 15.0497 38.4999 15.6463L41.1448 16.1733C42.4772 16.4418 43.0837 16.929 43.1036 17.6946C43.0837 18.5994 42.0994 19.2457 40.6178 19.2457C39.1065 19.2457 38.1022 18.5994 37.8437 17.3565L33.6775 17.5753C34.0752 20.4986 36.561 22.2983 40.6079 22.2983C44.5653 22.2983 47.3991 20.2798 47.409 17.267C47.3991 15.0597 45.9573 13.7372 42.9942 13.1307L40.23 12.5739C38.8082 12.2656 38.2812 11.7784 38.2911 11.0426C38.2812 10.1278 39.3153 9.53125 40.6278 9.53125C42.0994 9.53125 42.9744 10.3366 43.1832 11.321L47.061 11.0824ZM56.4365 22.2983C60.2149 22.2983 62.7604 20.4588 63.357 17.625L59.4393 17.3665C59.0118 18.5298 57.918 19.1364 56.5061 19.1364C54.3882 19.1364 53.0459 17.7344 53.0459 15.4574V15.4474H63.4465V14.2841C63.4465 9.09375 60.3044 6.52841 56.2675 6.52841C51.7732 6.52841 48.8598 9.72017 48.8598 14.4332C48.8598 19.2756 51.7334 22.2983 56.4365 22.2983ZM53.0459 12.8224C53.1354 11.0824 54.4578 9.69034 56.3371 9.69034C58.1766 9.69034 59.4493 11.0028 59.4592 12.8224H53.0459ZM65.6107 22H69.8464V13.3594C69.8464 11.4801 71.2186 10.1875 73.0879 10.1875C73.6746 10.1875 74.48 10.2869 74.8777 10.4162V6.65767C74.4999 6.56818 73.9729 6.50852 73.5453 6.50852C71.8351 6.50852 70.4331 7.50284 69.8763 9.39205H69.7172V6.72727H65.6107V22ZM91.1712 6.72727H86.6868L83.5249 17.6548H83.3658L80.1939 6.72727H75.7195L81.0589 22H85.8317L91.1712 6.72727ZM96.6564 22.2884C98.9135 22.2884 100.375 21.304 101.121 19.8821H101.24V22H105.257V11.6989C105.257 8.05966 102.175 6.52841 98.7743 6.52841C95.1152 6.52841 92.709 8.27841 92.1223 11.0625L96.0399 11.3807C96.3283 10.3665 97.2331 9.62074 98.7544 9.62074C100.196 9.62074 101.021 10.3466 101.021 11.5994V11.6591C101.021 12.6435 99.9774 12.7727 97.3226 13.0312C94.2999 13.3097 91.5854 14.3239 91.5854 17.7344C91.5854 20.7571 93.743 22.2884 96.6564 22.2884ZM97.8695 19.3651C96.5669 19.3651 95.6322 18.7585 95.6322 17.5952C95.6322 16.402 96.6166 15.8153 98.1081 15.6065C99.0328 15.4773 100.544 15.2585 101.051 14.9205V16.5412C101.051 18.142 99.7288 19.3651 97.8695 19.3651ZM116.067 6.72727H113.193V3.06818H108.958V6.72727H106.87V9.90909H108.958V17.8636C108.938 20.8565 110.976 22.3381 114.049 22.2088C115.142 22.169 115.918 21.9503 116.345 21.8111L115.679 18.6591C115.47 18.6989 115.023 18.7983 114.625 18.7983C113.78 18.7983 113.193 18.4801 113.193 17.3068V9.90909H116.067V6.72727ZM118.226 22H122.462V6.72727H118.226V22ZM120.354 4.75852C121.617 4.75852 122.651 3.79403 122.651 2.61079C122.651 1.4375 121.617 0.47301 120.354 0.47301C119.101 0.47301 118.067 1.4375 118.067 2.61079C118.067 3.79403 119.101 4.75852 120.354 4.75852ZM132.156 22.2983C136.789 22.2983 139.673 19.1264 139.673 14.4233C139.673 9.69034 136.789 6.52841 132.156 6.52841C127.522 6.52841 124.639 9.69034 124.639 14.4233C124.639 19.1264 127.522 22.2983 132.156 22.2983ZM132.176 19.017C130.038 19.017 128.944 17.0582 128.944 14.3935C128.944 11.7287 130.038 9.75994 132.176 9.75994C134.274 9.75994 135.367 11.7287 135.367 14.3935C135.367 17.0582 134.274 19.017 132.176 19.017ZM146.063 13.1705C146.073 11.2017 147.246 10.0483 148.956 10.0483C150.657 10.0483 151.681 11.1619 151.671 13.0312V22H155.907V12.2756C155.907 8.71591 153.819 6.52841 150.637 6.52841C148.37 6.52841 146.729 7.64204 146.043 9.42188H145.864V6.72727H141.827V22H146.063V13.1705Z" fill="#FB3F4A"/>
<path d="M162.235 22L163.746 17.3565H171.094L172.605 22H177.219L170.199 1.63636H164.651L157.621 22H162.235ZM164.84 13.9957L167.345 6.28977H167.504L170.01 13.9957H164.84ZM178.99 27.7273H183.226V19.554H183.355C183.942 20.8267 185.225 22.2486 187.691 22.2486C191.171 22.2486 193.885 19.4943 193.885 14.3835C193.885 9.13352 191.051 6.52841 187.701 6.52841C185.145 6.52841 183.922 8.04972 183.355 9.29261H183.166V6.72727H178.99V27.7273ZM183.137 14.3636C183.137 11.6392 184.29 9.89915 186.348 9.89915C188.446 9.89915 189.56 11.7188 189.56 14.3636C189.56 17.0284 188.426 18.8778 186.348 18.8778C184.31 18.8778 183.137 17.0881 183.137 14.3636ZM196.109 27.7273H200.345V19.554H200.474C201.061 20.8267 202.343 22.2486 204.809 22.2486C208.289 22.2486 211.004 19.4943 211.004 14.3835C211.004 9.13352 208.17 6.52841 204.819 6.52841C202.264 6.52841 201.041 8.04972 200.474 9.29261H200.285V6.72727H196.109V27.7273ZM200.255 14.3636C200.255 11.6392 201.409 9.89915 203.467 9.89915C205.565 9.89915 206.679 11.7188 206.679 14.3636C206.679 17.0284 205.545 18.8778 203.467 18.8778C201.429 18.8778 200.255 17.0881 200.255 14.3636Z" fill="#18214D"/>
</svg>
