<svg width="190" height="60" viewBox="0 0 190 60" fill="none" xmlns="http://www.w3.org/2000/svg">
<rect width="190" height="60" rx="8" fill="#EB5757"/>
<path d="M52.6634 27.0994H55.348C54.9006 24.2443 52.429 22.2557 49.2116 22.2557C45.4048 22.2557 42.5497 25.054 42.5497 29.7415C42.5497 34.3438 45.277 37.1989 49.2898 37.1989C52.8906 37.1989 55.4688 34.8835 55.4688 31.1335V29.3864H49.5668V31.446H52.919C52.8764 33.5199 51.4915 34.8338 49.304 34.8338C46.8679 34.8338 45.1989 33.0085 45.1989 29.7131C45.1989 26.4389 46.8963 24.6207 49.2472 24.6207C51.0014 24.6207 52.1946 25.5582 52.6634 27.0994ZM62.2326 37.2131C64.7752 37.2131 66.5224 35.9702 66.9769 34.0739L64.5763 33.804C64.2283 34.7273 63.3761 35.2102 62.2681 35.2102C60.6062 35.2102 59.5053 34.1165 59.484 32.2486H67.0835V31.4602C67.0835 27.6321 64.7823 25.9489 62.0977 25.9489C58.9727 25.9489 56.9343 28.2429 56.9343 31.6094C56.9343 35.0327 58.9442 37.2131 62.2326 37.2131ZM59.4911 30.5156C59.5692 29.1236 60.5991 27.9517 62.1332 27.9517C63.6104 27.9517 64.6048 29.0312 64.619 30.5156H59.4911ZM74.206 26.0909H72.054V23.4773H69.483V26.0909H67.9347V28.0795H69.483V34.1449C69.4688 36.1974 70.9602 37.206 72.892 37.1491C73.6236 37.1278 74.1278 36.9858 74.4048 36.8935L73.9716 34.8835C73.8295 34.919 73.5384 34.983 73.2188 34.983C72.5724 34.983 72.054 34.7557 72.054 33.7188V28.0795H74.206V26.0909ZM88.3356 26.4531H90.8711C90.8214 23.9957 88.7262 22.2557 85.6296 22.2557C82.5756 22.2557 80.2816 23.9744 80.2887 26.5455C80.2887 28.6335 81.7731 29.8338 84.1665 30.4517L85.8214 30.8778C87.391 31.2756 88.4279 31.7656 88.435 32.8949C88.4279 34.1378 87.2489 34.9688 85.5302 34.9688C83.8825 34.9688 82.604 34.2301 82.4975 32.7031H79.9052C80.0117 35.5938 82.1637 37.2202 85.5515 37.2202C89.0387 37.2202 91.0629 35.4801 91.07 32.9162C91.0629 30.3949 88.9819 29.2443 86.7944 28.7259L85.4308 28.3849C84.2376 28.1009 82.945 27.5966 82.9592 26.3821C82.9663 25.2884 83.9464 24.4858 85.5941 24.4858C87.1637 24.4858 88.2006 25.2173 88.3356 26.4531ZM98.2528 26.0909H96.1009V23.4773H93.5298V26.0909H91.9815V28.0795H93.5298V34.1449C93.5156 36.1974 95.0071 37.206 96.9389 37.1491C97.6705 37.1278 98.1747 36.9858 98.4517 36.8935L98.0185 34.8835C97.8764 34.919 97.5852 34.983 97.2656 34.983C96.6193 34.983 96.1009 34.7557 96.1009 33.7188V28.0795H98.2528V26.0909ZM103.042 37.2202C104.754 37.2202 105.777 36.4176 106.245 35.5014H106.331V37H108.802V29.6989C108.802 26.8153 106.451 25.9489 104.37 25.9489C102.076 25.9489 100.315 26.9716 99.7468 28.9602L102.147 29.3011C102.403 28.5554 103.127 27.9162 104.385 27.9162C105.578 27.9162 106.231 28.527 106.231 29.5994V29.642C106.231 30.3807 105.457 30.4162 103.532 30.6222C101.416 30.8494 99.3917 31.4815 99.3917 33.9389C99.3917 36.0838 100.961 37.2202 103.042 37.2202ZM103.71 35.331C102.637 35.331 101.87 34.8409 101.87 33.8963C101.87 32.9091 102.73 32.4972 103.88 32.3338C104.555 32.2415 105.904 32.071 106.238 31.8011V33.0866C106.238 34.3011 105.258 35.331 103.71 35.331ZM110.887 37H113.458V30.5866C113.458 29.2017 114.502 28.2216 115.916 28.2216C116.349 28.2216 116.889 28.2997 117.109 28.3707V26.0057C116.875 25.9631 116.47 25.9347 116.186 25.9347C114.936 25.9347 113.892 26.6449 113.494 27.9091H113.38V26.0909H110.887V37ZM124.35 26.0909H122.199V23.4773H119.627V26.0909H118.079V28.0795H119.627V34.1449C119.613 36.1974 121.105 37.206 123.037 37.1491C123.768 37.1278 124.272 36.9858 124.549 36.8935L124.116 34.8835C123.974 34.919 123.683 34.983 123.363 34.983C122.717 34.983 122.199 34.7557 122.199 33.7188V28.0795H124.35V26.0909ZM130.713 37.2131C133.256 37.2131 135.003 35.9702 135.457 34.0739L133.057 33.804C132.709 34.7273 131.857 35.2102 130.749 35.2102C129.087 35.2102 127.986 34.1165 127.964 32.2486H135.564V31.4602C135.564 27.6321 133.263 25.9489 130.578 25.9489C127.453 25.9489 125.415 28.2429 125.415 31.6094C125.415 35.0327 127.425 37.2131 130.713 37.2131ZM127.972 30.5156C128.05 29.1236 129.08 27.9517 130.614 27.9517C132.091 27.9517 133.085 29.0312 133.099 30.5156H127.972ZM141.287 37.1918C143.162 37.1918 144.007 36.0767 144.412 35.2812H144.569V37H147.097V22.4545H144.519V27.8949H144.412C144.022 27.1065 143.219 25.9489 141.294 25.9489C138.773 25.9489 136.792 27.9233 136.792 31.5597C136.792 35.1534 138.716 37.1918 141.287 37.1918ZM142.005 35.0824C140.307 35.0824 139.412 33.5909 139.412 31.5455C139.412 29.5142 140.293 28.0582 142.005 28.0582C143.659 28.0582 144.569 29.429 144.569 31.5455C144.569 33.6619 143.645 35.0824 142.005 35.0824Z" fill="white"/>
</svg>
